<?xml version="1.0" encoding="UTF-8" standalone="no"?>
<!DOCTYPE svg PUBLIC "-//W3C//DTD SVG 1.1//EN" "http://www.w3.org/Graphics/SVG/1.1/DTD/svg11.dtd">
<svg version="1.1" xmlns="http://www.w3.org/2000/svg" xmlns:xlink="http://www.w3.org/1999/xlink" preserveAspectRatio="xMidYMid meet" viewBox="0 0 640 640" width="640" height="640"><defs>
<path d="M296.37 28.26L298.13 28.28L299.9 28.32L301.66 28.37L303.42 28.42L305.17 28.49L306.92 28.57L308.67 28.66L310.42 28.76L312.16 28.87L313.91 28.99L315.64 29.12L317.38 29.26L319.11 29.41L320.84 29.57L322.56 29.74L324.29 29.92L326 30.11L327.72 30.31L329.43 30.52L331.14 30.74L332.85 30.97L334.55 31.21L336.25 31.46L337.94 31.72L339.64 31.99L341.32 32.26L343.01 32.55L344.69 32.85L346.37 33.16L348.04 33.48L349.71 33.8L351.38 34.14L353.04 34.48L354.7 34.84L356.35 35.2L358 35.58L359.65 35.96L361.29 36.35L351.68 38.15L342.19 40.3L332.82 42.81L323.59 45.66L314.5 48.84L305.55 52.36L296.75 56.2L288.12 60.36L279.65 64.83L271.35 69.6L263.22 74.67L255.28 80.03L247.54 85.67L239.99 91.59L232.64 97.78L225.5 104.23L218.58 110.93L211.88 117.89L205.41 125.08L199.18 132.51L193.18 140.17L187.44 148.05L181.95 156.15L176.72 164.45L171.76 172.96L167.07 181.66L162.66 190.54L158.54 199.61L154.71 208.85L151.18 218.26L147.96 227.82L145.05 237.54L142.46 247.41L140.19 257.42L138.25 267.55L136.65 277.82L135.4 288.2L134.5 298.7L133.95 309.3L133.76 320L133.95 330.7L134.5 341.3L135.4 351.8L136.66 362.18L138.26 372.45L140.2 382.58L142.47 392.59L145.06 402.46L147.98 412.18L151.2 421.74L154.73 431.15L158.57 440.39L162.69 449.46L167.1 458.34L171.8 467.04L176.76 475.55L181.99 483.85L187.49 491.95L193.24 499.83L199.24 507.49L205.47 514.92L211.95 522.11L218.65 529.07L225.58 535.77L232.72 542.22L240.07 548.41L247.63 554.33L255.38 559.97L263.32 565.33L271.44 570.4L279.75 575.17L288.22 579.64L296.86 583.8L305.66 587.64L314.61 591.16L323.7 594.34L332.94 597.19L342.31 599.7L351.8 601.85L361.41 603.65L359.76 604.04L358.1 604.42L356.45 604.8L354.78 605.16L353.12 605.52L351.45 605.86L349.78 606.2L348.1 606.52L346.42 606.84L344.74 607.15L343.06 607.45L341.37 607.74L339.68 608.01L337.98 608.28L336.28 608.54L334.58 608.79L332.88 609.03L331.17 609.26L329.46 609.48L327.75 609.69L326.03 609.89L324.32 610.08L322.6 610.26L320.87 610.43L319.14 610.59L317.42 610.74L315.68 610.88L313.95 611.01L312.21 611.13L310.47 611.24L308.73 611.34L306.99 611.43L305.24 611.51L303.49 611.58L301.74 611.63L299.98 611.68L298.23 611.72L296.47 611.74L294.7 611.76L292.94 611.76L280.86 611.52L268.9 610.8L257.08 609.6L245.4 607.95L233.88 605.84L222.51 603.29L211.32 600.3L200.31 596.89L189.49 593.07L178.88 588.84L168.47 584.22L158.28 579.21L148.31 573.82L138.59 568.06L129.11 561.95L119.89 555.48L110.94 548.68L102.26 541.54L93.86 534.09L85.76 526.32L77.97 518.25L70.48 509.89L63.32 501.25L56.49 492.33L50 483.15L43.87 473.71L38.09 464.02L32.68 454.1L27.65 443.95L23.01 433.58L18.76 423.01L14.93 412.24L11.5 401.27L8.51 390.13L5.95 378.81L3.83 367.34L2.17 355.71L0.97 343.93L0.24 332.03L0 320L0.24 307.97L0.97 296.07L2.17 284.29L3.83 272.66L5.95 261.19L8.51 249.87L11.5 238.73L14.92 227.76L18.76 216.99L23.01 206.42L27.65 196.05L32.68 185.9L38.08 175.98L43.86 166.29L50 156.85L56.49 147.67L63.31 138.75L70.47 130.11L77.96 121.75L85.75 113.68L93.85 105.91L102.24 98.46L110.92 91.32L119.87 84.52L129.08 78.05L138.56 71.94L148.28 66.18L158.24 60.79L168.42 55.78L178.83 51.16L189.44 46.93L200.25 43.11L211.26 39.7L222.44 36.71L233.8 34.16L245.32 32.05L256.99 30.4L268.8 29.2L280.75 28.48L292.82 28.24L294.6 28.24L296.37 28.26Z" id="c2fybuu33m"></path><path d="M348.82 282.01C348.82 277.3 348.82 239.65 348.82 234.95C348.82 229.77 344.59 225.54 339.41 225.54C333.76 225.54 288.59 225.54 282.94 225.54C277.76 225.54 273.53 229.77 273.53 234.95C273.53 239.65 273.53 277.3 273.53 282.01C273.53 287.18 269.29 291.42 264.12 291.42C259.41 291.42 221.76 291.42 217.06 291.42C211.88 291.42 207.65 295.65 207.65 300.83C207.65 306.48 207.65 351.65 207.65 357.3C207.65 362.48 211.88 366.71 217.06 366.71C221.76 366.71 259.41 366.71 264.12 366.71C269.29 366.71 273.53 370.95 273.53 376.12C273.53 380.83 273.53 418.48 273.53 423.18C273.53 428.36 277.76 432.59 282.94 432.59C288.59 432.59 333.76 432.59 339.41 432.59C344.59 432.59 348.82 428.36 348.82 423.18C348.82 418.48 348.82 380.83 348.82 376.12C348.82 370.95 353.06 366.71 358.24 366.71C362.94 366.71 400.59 366.71 405.29 366.71C410.47 366.71 414.71 362.48 414.71 357.3C414.71 351.65 414.71 306.48 414.71 300.83C414.71 295.65 410.47 291.42 405.29 291.42C402.16 291.42 386.47 291.42 358.24 291.42C351.96 288.59 348.82 285.46 348.82 282.01Z" id="d200C4NqvX"></path><path d="M236.24 160.94C234.59 162.12 233.06 163.41 231.53 164.59C307.18 143.65 391.41 169.29 442 235.76C484 291.06 492.47 361.18 470.71 421.65C537.41 355.53 550.24 254.47 496.94 184.24C438.12 107.18 321.53 96.71 236.24 160.94" id="b5nyudEst"></path><path d="M483.63 443.33C392.22 508.5 272.33 499.21 200.8 426.15C207.27 442.74 215.75 458.74 226.33 473.8C298.8 577.56 440.92 602.39 543.63 529.09C646.33 455.8 670.8 312.27 598.33 208.39C587.75 193.21 575.63 179.8 562.45 168.15C606.45 260.86 575.04 378.15 483.63 443.33" id="d19OUk0SJ"></path></defs><g><g><g><use xlink:href="#c2fybuu33m" opacity="1" fill="#ffffff" fill-opacity="1"></use><g><use xlink:href="#c2fybuu33m" opacity="1" fill-opacity="0" stroke="#000000" stroke-width="1" stroke-opacity="0"></use></g></g><g><use xlink:href="#d200C4NqvX" opacity="1" fill="#ed2215" fill-opacity="1"></use><use xlink:href="#d200C4NqvX" opacity="1" fill="#ed2215" fill-opacity="1"></use><g><use xlink:href="#d200C4NqvX" opacity="1" fill-opacity="0" stroke="#000000" stroke-width="1" stroke-opacity="0"></use></g></g><g><use xlink:href="#b5nyudEst" opacity="1" fill="#ffffff" fill-opacity="1"></use><g><use xlink:href="#b5nyudEst" opacity="1" fill-opacity="0" stroke="#000000" stroke-width="1" stroke-opacity="0"></use></g></g><g><use xlink:href="#d19OUk0SJ" opacity="1" fill="#ffffff" fill-opacity="1"></use><g><use xlink:href="#d19OUk0SJ" opacity="1" fill-opacity="0" stroke="#000000" stroke-width="1" stroke-opacity="0"></use></g></g></g></g>
</svg>